<?xml version="1.0" encoding="UTF-8"?>
<svg width="255" height="255" version="1.1" viewBox="0 0 67.469 67.469" xmlns="http://www.w3.org/2000/svg">
    <defs>
        <linearGradient id="n-grad" x1="0" y1="0" x2="0.6" y2="1" gradientUnits="objectBoundingBox">
            <stop stop-color="#6EB0C9" offset="0"/>
            <stop stop-color="#40A5FE" offset="1"/>
        </linearGradient>
        <linearGradient id="h-grad" x1="0.2" y1="0" x2="1" y2="1" gradientUnits="objectBoundingBox">
            <stop stop-color="#3274A0" offset="0"/>
            <stop stop-color="#0A4059" offset="1"/>
        </linearGradient>
        <filter id="glow" x="-20%" y="-20%" width="140%" height="140%">
            <feGaussianBlur in="SourceGraphic" stdDeviation="1.2" result="blur"/>
            <feColorMatrix in="blur" type="matrix" values="0 0 0 0 0.25  0 0 0 0 0.65  0 0 0 0 0.99  0 0 0 0.3 0" result="glow"/>
            <feMerge>
                <feMergeNode in="glow"/>
                <feMergeNode in="SourceGraphic"/>
            </feMerge>
        </filter>
    </defs>
    <g transform="matrix(.71095 0 0 .71095 -1092.5 26.829)" stroke-width=".11829" filter="url(#glow)">
        <path d="m1536.6-22.566v62.489a4.2333 4.2333 45 0 0 4.2333 4.2333h10.513a4.2333 4.2333 135 0 0 4.2333-4.2333v-31.245l16.983 31.745a7.0658 7.0658 30.927 0 0 6.2303 3.7327h10.513a2.5363 2.5363 120.93 0 0 2.2364-3.7327l-33.966-63.49a7.0658 7.0658 30.927 0 0-6.2302-3.7327h-10.513a4.2333 4.2333 135 0 0-4.2333 4.2333z"
              fill="url(#n-grad)"/>
        <path d="m1574.6-22.566v19.679a5.2773 5.2773 75.927 0 0 0.624 2.4894l17.732 33.145a0.33163 0.33163 165.93 0 0 0.624-0.15643v-13.508a2.6458 2.6458 135 0 1 2.6458-2.6458h13.688a2.6458 2.6458 45 0 1 2.6458 2.6458v20.841a4.2333 4.2333 45 0 0 4.2333 4.2333h10.514a4.2333 4.2333 135 0 0 4.2333-4.2333v-62.489a4.2333 4.2333 45 0 0-4.2333-4.2333h-10.514a4.2333 4.2333 135 0 0-4.2333 4.2333v20.004a2.6458 2.6458 135 0 1-2.6458 2.6458h-13.688a2.6458 2.6458 45 0 1-2.6458-2.6458v-20.004a4.2333 4.2333 45 0 0-4.2333-4.2333h-10.513a4.2333 4.2333 135 0 0-4.2333 4.2333z"
              fill="url(#h-grad)"/>
    </g>
</svg>
